HIERARCHY
ROOT Hips
{
    OFFSET 0.000000 0.000000 0.000000
    CHANNELS 6 Xposition Yposition Zposition Zrotation Yrotation Xrotation
    JOINT LeftUpLeg
    {
        OFFSET 9.162498 -10.205075 3.799697
        CHANNELS 3 Zrotation Yrotation Xrotation
        JOINT LeftLeg
        {
            OFFSET 14.513953 -39.876781 0.000000
            CHANNELS 3 Zrotation Yrotation Xrotation
            JOINT LeftFoot
            {
                OFFSET 14.224848 -39.082561 0.000000
                CHANNELS 3 Zrotation Yrotation Xrotation
                JOINT LeftToeBase
                {
                    OFFSET 1.314863 -3.612473 11.865319
                    CHANNELS 3 Zrotation Yrotation Xrotation
                    End Site
                    {
                        OFFSET 0.000000 0.000000 0.000000
                    }
                }
            }
        }
    }
    JOINT RightUpLeg
    {
        OFFSET -8.357156 -10.205075 3.799697
        CHANNELS 3 Zrotation Yrotation Xrotation
        JOINT RightLeg
        {
            OFFSET -14.859335 -40.825722 0.000000
            CHANNELS 3 Zrotation Yrotation Xrotation
            JOINT RightFoot
            {
                OFFSET -14.380747 -39.510799 0.000000
                CHANNELS 3 Zrotation Yrotation Xrotation
                JOINT RightToeBase
                {
                    OFFSET -1.301994 -3.577195 11.975215
                    CHANNELS 3 Zrotation Yrotation Xrotation
                    End Site
                    {
                        OFFSET 0.000000 0.000000 0.000000
                    }
                }
            }
        }
    }
    JOINT Spine
    {
        OFFSET -0.118984 11.716251 -0.958476
        CHANNELS 3 Zrotation Yrotation Xrotation
        JOINT Spine1
        {
            OFFSET 0.286171 11.765131 -0.177291
            CHANNELS 3 Zrotation Yrotation Xrotation
            JOINT Neck1
            {
                OFFSET -0.605701 9.054070 1.770648
                CHANNELS 3 Zrotation Yrotation Xrotation
                JOINT Head
                {
                    OFFSET 0.474750 9.351585 -1.739717
                    CHANNELS 3 Zrotation Yrotation Xrotation
                    End Site
                    {
                        OFFSET 0.000000 0.000000 0.000000
                    }
                }
            }
            JOINT LeftShoulder
            {
                OFFSET 0.000000 0.000000 0.000000
                CHANNELS 3 Zrotation Yrotation Xrotation
                JOINT LeftArm
                {
                    OFFSET 19.886068 4.132773 -3.087148
                    CHANNELS 3 Zrotation Yrotation Xrotation
                    JOINT LeftForeArm
                    {
                        OFFSET 30.054285 -0.000000 -0.000000
                        CHANNELS 3 Zrotation Yrotation Xrotation
                        JOINT LeftHand
                        {
                            OFFSET 19.665203 -0.000000 -0.000000
                            CHANNELS 3 Zrotation Yrotation Xrotation
                            End Site
                            {
                                OFFSET 0.000000 0.000000 0.000000
                            }
                        }
                    }
                }
            }
            JOINT RightShoulder
            {
                OFFSET 0.000000 0.000000 0.000000
                CHANNELS 3 Zrotation Yrotation Xrotation
                JOINT RightArm
                {
                    OFFSET -19.290640 5.282707 -0.565512
                    CHANNELS 3 Zrotation Yrotation Xrotation
                    JOINT RightForeArm
                    {
                        OFFSET -30.117897 -0.000000 -0.000000
                        CHANNELS 3 Zrotation Yrotation Xrotation
                        JOINT RightHand
                        {
                            OFFSET -20.553181 -0.000000 -0.000000
                            CHANNELS 3 Zrotation Yrotation Xrotation
                            End Site
                            {
                                OFFSET 0.000000 0.000000 0.000000
                            }
                        }
                    }
                }
            }
        }
    }
}
MOTION
Frames: 15
Frame Time: 0.016667
-5.992095 93.174370 -16.393032 -0.025100 -22.428101 5.651802 -20.090605 -1.768600 -13.914707 3.191701 10.999103 32.276924 1.333700 1.143800 -22.267300 0.402700 -4.074402 -11.285904 11.402000 12.596994 -19.236998 -4.125301 -12.325305 36.892700 -0.931600 6.616603 -17.221514 -0.001400 -0.244000 0.670400 -4.097468 -2.370238 3.324370 4.145900 -0.679600 -0.879100 -7.080300 -8.356050 4.223287 2.980302 -2.781101 10.920011 0.000000 0.000000 0.000000 -81.403419 -2.584202 41.551918 126.461090 -54.326801 -90.974594 0.000000 0.000000 9.516200 0.000000 0.000000 0.000000 80.978104 3.992697 41.599602 -142.824203 46.304798 -103.633003 0.000000 0.000000 -1.067400 
-6.228031 93.222916 -16.296513 0.063200 -22.228600 5.413104 -20.055908 -1.904199 -13.446507 3.150501 10.934803 32.060310 1.315200 1.121200 -22.106199 0.350400 -3.803104 -10.523406 11.601898 12.831194 -18.549692 -4.076002 -12.260801 36.661118 -1.034700 5.755497 -18.166300 -0.000200 -0.090500 0.248700 -4.064301 -2.248265 3.244421 3.935502 -0.642100 -0.968500 -6.958877 -8.078438 4.431226 3.022401 -2.715101 11.113204 0.000000 0.000000 0.000000 -81.014603 -3.560697 41.571503 126.627007 -54.268501 -91.109406 0.000000 0.000000 8.174004 0.000000 0.000000 0.000000 80.815109 4.392899 41.788589 -142.203522 46.708809 -103.182701 0.000000 0.000000 -1.027800 
-6.474127 93.213882 -16.264902 0.025700 -22.140503 5.207301 -19.924097 -2.325300 -12.904801 3.150801 10.935205 32.061596 1.321600 1.529101 -22.323200 0.353300 -3.818801 -10.567304 11.874701 13.145198 -18.111795 -4.054302 -12.232300 36.558701 -1.031100 5.483800 -18.144999 0.000000 -0.031600 0.086900 -3.902077 -1.946919 3.271449 3.813498 -0.545400 -1.284900 -7.039731 -7.824823 4.854770 3.205800 -2.666900 11.024106 0.000000 0.000000 0.000000 -80.798119 -4.391604 41.693611 126.632812 -54.266418 -91.114120 0.000000 0.000000 7.395000 0.000000 0.000000 0.000000 80.538513 4.481008 41.864315 -141.636093 47.070110 -102.768524 0.000000 0.000000 -1.136101 
-6.713449 93.208229 -16.201122 -0.095400 -22.035501 4.995602 -19.722700 -2.426701 -12.520504 3.173700 10.971100 32.182499 1.333500 1.714200 -22.497009 0.340600 -3.750303 -10.375107 12.202902 13.317303 -17.653309 -4.065199 -12.246605 36.610100 -1.042100 5.390200 -18.249107 -0.001100 -0.217300 0.597100 -3.577600 -1.472239 3.376455 3.406302 -0.419100 -1.076301 -6.867417 -7.989025 4.531585 3.073500 -2.697402 11.205807 0.000000 0.000000 0.000000 -80.464600 -5.910899 41.854698 126.634331 -54.265934 -91.115334 0.000000 0.000000 6.530204 0.000000 0.000000 0.000000 80.523323 5.854802 41.764412 -140.846298 47.560410 -102.187904 0.000000 0.000000 -1.274800 
-6.978736 93.237015 -16.152016 -0.040401 -21.870407 4.792602 -19.642708 -2.355701 -12.332300 3.184902 10.988504 32.241199 1.325600 1.724001 -22.436890 0.358300 -3.845703 -10.642904 12.359307 13.101604 -17.444508 -4.085903 -12.273802 36.707726 -1.049200 5.354500 -18.314501 -0.000200 -0.088200 0.242200 -3.539332 -1.106970 3.505102 3.124201 -0.318700 -1.062700 -6.627069 -8.150121 4.151434 2.862103 -2.717201 11.376313 0.000000 0.000000 0.000000 -80.187035 -6.886996 42.021523 127.119019 -54.093414 -91.508324 0.000000 0.000000 5.812600 0.000000 0.000000 0.000000 80.598015 6.757202 41.737518 -140.573196 47.726612 -101.986008 0.000000 0.000000 -0.567400 
-7.249668 93.261856 -16.144678 -0.070000 -21.385508 4.674499 -19.462799 -3.105201 -11.915400 3.190699 10.997503 32.271400 1.329100 2.091601 -22.623810 0.407200 -4.096802 -11.349100 12.665199 12.718904 -17.271107 -4.100801 -12.293301 36.777515 -1.070001 5.138703 -18.513607 -0.000500 -0.142400 0.391300 -3.373366 -1.192039 3.571913 3.267101 -0.341800 -1.026600 -6.751493 -7.813123 3.869139 2.980901 -2.629601 11.433504 0.000000 0.000000 0.000000 -80.415833 -7.844698 41.966492 127.495712 -53.956902 -91.813225 0.000000 0.000000 5.319400 0.000000 0.000000 0.000000 80.108498 7.333701 41.904598 -140.975693 47.481102 -102.283302 0.000000 0.000000 0.093400 
-7.528501 93.272575 -16.142984 -0.234300 -20.863899 4.754098 -19.056005 -3.143103 -11.969504 3.204101 11.018403 32.341908 1.333300 1.671901 -22.478100 0.401700 -4.069000 -11.270800 13.077005 12.251704 -17.307905 -4.106300 -12.300600 36.803802 -1.097900 4.948000 -18.776300 -0.000100 -0.063100 0.173500 -3.014571 -1.115914 3.572424 3.054400 -0.317500 -1.074700 -6.638243 -7.676115 3.644641 2.939700 -2.582000 11.491400 0.000000 0.000000 0.000000 -80.314713 -8.748497 42.221985 128.074814 -53.743103 -92.280815 0.000000 0.000000 4.348500 0.000000 0.000000 0.000000 80.106102 7.881499 41.995102 -141.636093 47.070110 -102.768524 0.000000 0.000000 0.679100 
-7.839508 93.303055 -16.118149 -0.351000 -20.130707 4.856400 -18.681900 -3.565701 -11.919899 3.209298 11.026402 32.368900 1.330001 1.437200 -22.354008 0.422500 -4.172001 -11.561204 13.443707 11.690606 -17.299213 -4.105503 -12.299405 36.799717 -1.129001 4.855803 -19.057001 -0.000500 -0.142200 0.390800 -2.724124 -1.298865 3.553399 3.276101 -0.351900 -1.525400 -6.933712 -7.231936 3.759942 2.758200 -2.446800 11.668704 0.000000 0.000000 0.000000 -80.658035 -9.165998 42.473999 128.742599 -53.490208 -92.818390 0.000000 0.000000 3.481200 0.000000 0.000000 0.000000 79.676102 8.065298 42.230301 -142.643631 46.423302 -103.502327 0.000000 0.000000 0.415400 
-8.135839 93.292900 -16.088799 -0.173700 -19.513300 4.879200 -18.639803 -4.037400 -11.891903 3.200900 11.013404 32.325100 1.302400 1.251500 -22.052000 0.368800 -3.900603 -10.797103 13.457400 11.478000 -17.208902 -4.104700 -12.298401 36.795898 -1.183500 4.780002 -19.535101 -0.000500 -0.150000 0.412200 -2.750213 -1.425742 3.457558 3.384801 -0.383600 -1.613101 -7.060670 -6.693797 3.628242 2.715102 -2.286801 11.681304 0.000000 0.000000 0.000000 -80.944313 -9.575606 42.660915 129.646210 -53.137226 -93.543114 0.000000 0.000000 2.417200 0.000000 0.000000 0.000000 79.265022 8.431602 42.512009 -143.774979 45.667305 -104.316788 0.000000 0.000000 -0.244400 
-8.433863 93.291771 -16.124357 -0.289500 -18.842501 4.951903 -18.259003 -4.354003 -11.877704 3.200400 11.012602 32.322193 1.307300 1.089100 -22.028107 0.433900 -4.227304 -11.717004 13.810107 11.344204 -17.014109 -4.093500 -12.283807 36.743397 -1.234800 4.567000 -19.991707 -0.000800 -0.181400 0.498400 -2.363765 -1.524240 3.388520 2.873701 -0.433400 -0.895800 -6.580712 -6.443858 2.754687 2.636301 -2.187202 11.763405 0.000000 0.000000 0.000000 -80.471397 -11.195302 42.846001 130.123398 -52.945614 -93.924438 0.000000 0.000000 1.259000 0.000000 0.000000 0.000000 79.735420 9.853702 42.514099 -144.421005 45.221214 -104.777077 0.000000 0.000000 -0.704100 
-8.729065 93.279350 -16.173464 -0.396800 -18.212408 5.092400 -17.872915 -4.684701 -12.033904 3.221200 11.044804 32.431091 1.288101 0.757300 -21.741199 0.390300 -4.011802 -11.109800 14.139100 11.194900 -16.952000 -4.073800 -12.257901 36.650707 -1.281901 4.517800 -20.389601 -0.009700 -0.634800 1.744601 -2.154631 -1.613234 3.515585 3.364201 -0.432800 -1.612800 -6.880145 -5.936323 3.190180 2.721802 -2.063900 11.850200 0.000000 0.000000 0.000000 -81.070114 -11.370602 43.169495 130.581421 -52.758320 -94.289413 0.000000 0.000000 0.260900 0.000000 0.000000 0.000000 79.159897 9.447507 42.648090 -145.618515 44.365410 -105.620811 0.000000 0.000000 -1.148100 
-9.014671 93.281052 -16.271112 -0.288000 -17.526699 5.420598 -17.684200 -4.940000 -12.530996 3.235802 11.067401 32.507530 1.275500 0.262800 -21.455700 0.376400 -3.940302 -10.908706 14.182400 10.883300 -17.352407 -4.075700 -12.260500 36.659904 -1.309301 4.345802 -20.636309 -0.010100 -0.648200 1.781200 -2.103280 -1.832748 3.233141 3.621100 -0.490500 -1.597100 -7.107692 -5.484843 3.088037 2.745500 -1.934401 11.784704 0.000000 0.000000 0.000000 -81.404938 -12.117604 43.340824 130.806198 -52.665100 -94.468216 0.000000 0.000000 -0.391200 0.000000 0.000000 0.000000 78.949097 9.774401 42.647598 -146.281204 43.875301 -106.082199 0.000000 0.000000 -1.210600 
-9.293505 93.286133 -16.340538 -0.138301 -17.015514 5.410303 -17.625601 -5.368100 -12.449694 3.225402 11.051302 32.453110 1.270200 0.202100 -21.390116 0.373700 -3.926500 -10.869900 14.252701 10.616599 -17.399214 -4.097901 -12.289508 36.763908 -1.345700 4.208502 -20.951099 -0.007000 -0.540300 1.484700 -2.112690 -1.780496 3.445054 3.613103 -0.477300 -1.584902 -6.965599 -5.079725 2.803661 2.807799 -1.820700 11.903998 0.000000 0.000000 0.000000 -81.563805 -12.873603 43.540508 131.023224 -52.574425 -94.640747 0.000000 0.000000 -1.020401 0.000000 0.000000 0.000000 78.984489 10.257104 42.491802 -146.593597 43.640102 -106.298302 0.000000 0.000000 -0.869500 
-9.589836 93.312660 -16.441572 0.030100 -16.648514 5.497806 -17.582600 -5.695000 -12.506500 3.216701 11.037902 32.407700 1.270000 0.145300 -21.368307 0.367400 -3.893500 -10.777196 14.287710 10.613507 -17.544916 -4.120003 -12.318408 36.868015 -1.379400 3.941702 -21.261000 -0.004600 -0.440300 1.209899 -2.200197 -1.684421 3.551209 3.499502 -0.451100 -1.635900 -6.718932 -4.754402 2.647959 2.779000 -1.719700 11.926300 0.000000 0.000000 0.000000 -81.566429 -13.357693 43.945400 131.243378 -52.481506 -94.815483 0.000000 0.000000 -0.745900 0.000000 0.000000 0.000000 79.200699 10.637100 42.319809 -146.534409 43.684906 -106.257408 0.000000 0.000000 -0.410600 
-9.865282 93.318298 -16.556719 -0.093800 -16.327509 5.612000 -17.224709 -5.723802 -12.734205 3.226999 11.053803 32.461594 1.256300 0.154300 -21.255806 0.454301 -4.324203 -11.990507 14.630703 10.638101 -17.643599 -4.142700 -12.348002 36.974300 -1.407400 3.771600 -21.511600 -0.007100 -0.544400 1.495900 -1.878026 -1.643150 3.735916 3.391600 -0.437200 -1.695799 -6.580278 -4.349916 2.539959 2.927701 -1.613600 11.849704 0.000000 0.000000 0.000000 -81.814934 -13.798707 43.953304 131.112518 -52.536823 -94.711609 0.000000 0.000000 -0.839600 0.000000 0.000000 0.000000 79.286430 10.962498 42.221909 -146.089203 44.018505 -105.949005 0.000000 0.000000 0.074100 
